<svg version="1.1" xmlns="http://www.w3.org/2000/svg" width="158.763px" height="50px" viewBox="0 0 158.763 50">
	<path fill="#CC9252" d="M5.89,31.977l15.827,7.429c-0.517,1.809-1.744,3.876-2.584,4.974L0.141,34.238
		c-0.258-1.227-0.129-2.003,0.129-3.424l19.703-9.561c0.904,1.098,1.227,2.196,1.615,3.488L5.89,31.977z M27.854,49.031
		c0.194-1.744,2.326-11.305,2.519-13.889C30.632,25,30.826,14.535,31.019,4.07c-1.034-0.129-2.842-0.323-3.747-0.517
		c-0.129-0.517-0.194-1.163-0.129-1.809c1.68-0.452,5.749-1.551,7.364-1.744c0.84,0.388,1.938,1.357,2.261,2.003l-2.196,29.134
		l0.388,0.129c2.39-3.941,7.235-11.563,10.401-15.31c1.034-0.323,3.359-0.194,4.522,0c1.034,0.646,2.132,1.486,3.101,2.778
		c-1.034,7.041-2.455,23.966-2.455,26.938l3.747-0.452c0.129,0.258,0.517,1.357,0.517,1.68c-1.098,0.969-4.845,3.036-5.491,3.036
		c-1.227,0-3.682-2.261-3.682-3.295c0.646-7.364,1.55-18.799,2.584-25.904c-0.452-0.581-1.163-0.969-1.68-1.034
		c-2.972,3.036-10.982,14.018-12.08,17.119c-0.452,4.134-0.84,10.53-0.775,11.434c-0.452,0.517-3.036,1.68-3.876,1.68
		C29.404,49.935,28.306,49.548,27.854,49.031z M60.09,49.031c0.194-1.615,2.261-11.434,2.455-14.018l0.581-15.245l-3.941,0.323
		c-0.194-0.517-0.258-1.357-0.258-1.744c1.938-1.098,5.685-2.584,6.331-2.584c1.163,0,2.713,1.551,2.842,2.326l-1.615,13.824
		l0.388,0.065c1.615-4.328,6.073-15.568,7.494-16.279c2.261-0.065,4.328,0.581,6.008,1.938c-0.258,1.357-1.486,4.457-2.584,5.814
		c-1.809-0.258-2.713-0.711-3.553-1.034c-2.067,3.23-6.396,11.757-7.429,14.858c-0.646,4.328-1.034,9.884-0.969,10.982
		C65.258,48.773,62.738,50,61.899,50C61.511,50,60.542,49.483,60.09,49.031z M101.047,43.217c-2.455,3.036-7.106,6.718-11.046,6.718
		c-2.519,0-6.848-4.457-7.687-7.364c-0.517-1.744-1.034-3.941-1.034-7.881c0.065-6.654,1.809-11.434,4.587-15.375
		c1.421-2.067,5.168-3.618,7.235-3.618c5.62,0,8.269,3.553,8.463,6.072c0.194,2.713-0.84,8.01-2.261,9.173
		c-3.165,2.649-8.204,3.811-13.114,4.587c0.194,7.171,3.295,9.819,5.878,10.659c2.649-0.129,6.589-3.682,7.687-4.716
		C100.207,41.796,100.918,42.7,101.047,43.217z M86.189,33.333c1.744-0.452,6.395-1.55,8.462-2.778
		c1.938-1.357,3.036-8.075,2.39-10.853c-1.357-0.969-4.134-1.68-5.491-1.486C89.096,21.447,86.512,26.486,86.189,33.333z
		 M107.378,48.643c-0.711-0.646-1.68-3.165-1.68-4.522c-0.065-5.556,2.39-19.768,6.202-25.84c1.163-1.421,3.165-2.52,4.393-2.52
		c1.55,0,6.266,0.84,8.204,1.809l0.775-13.501c-1.034-0.129-3.101-0.323-3.941-0.517c-0.065-0.452-0.194-1.227-0.129-1.809
		c1.68-0.452,6.072-1.551,7.687-1.744c0.84,0.388,1.938,1.357,2.196,2.003l-3.036,25.194c-0.452,6.072-0.904,12.855-1.098,18.476
		l3.747-0.452c0.194,0.323,0.452,1.227,0.452,1.68c-1.163,0.969-4.587,3.036-5.555,3.036c-1.228,0-3.811-2.326-3.682-3.489
		l1.809-13.178l-0.387-0.129c-2.713,5.362-10.724,16.796-12.855,16.796C109.832,49.935,108.217,49.419,107.378,48.643z
		 M123.98,27.39l0.452-7.041c-2.067-0.969-6.783-1.68-8.527-1.551c-3.101,6.46-5.491,20.22-5.491,25.452
		c0.129,0.388,1.034,0.582,1.357,0.582C114.548,42.313,122.365,31.137,123.98,27.39z M158.67,30.814
		c0.194,1.227,0.065,1.938-0.194,3.424l-19.638,9.561c-0.904-1.098-1.227-2.196-1.615-3.553l15.633-7.235l-15.827-7.429
		c0.582-1.809,1.744-3.811,2.584-4.91L158.67,30.814z"/>
</svg>